PathFileType	4	(X/Y/Z)	c:/Users/goper/Files/vsCode/490R/osim_files/C10/C10_SSWS_01.trc
DataRate	CameraRate	NumFrames	NumMarkers	Units                	OrigDataRate	OrigDataStartFrame	OrigNumFrames
250.00	250.00	4	36	mm	250.0	623	2489
                Frame#	Time	LPSIS			LASIS			LTH1			LTH2			LTH3			LTH4			LLFE			LMFE			LSH1			LSH2			LSH3			LSH4			LLMAL			LMMAL			LCAL			LMTP5			LTOE			LMTP1			RPSIS			RASIS			RTH1			RTH2			RTH3			RTH4			RLFE			RMFE			RSH1			RSH2			RSH3			RSH4			RLMAL			RMMAL			RCAL			RMTP1			RTOE			RMTP5		
		X1	Y1	Z1	X2	Y2	Z2	X3	Y3	Z3	X4	Y4	Z4	X5	Y5	Z5	X6	Y6	Z6	X7	Y7	Z7	X8	Y8	Z8	X9	Y9	Z9	X10	Y10	Z10	X11	Y11	Z11	X12	Y12	Z12	X13	Y13	Z13	X14	Y14	Z14	X15	Y15	Z15	X16	Y16	Z16	X17	Y17	Z17	X18	Y18	Z18	X19	Y19	Z19	X20	Y20	Z20	X21	Y21	Z21	X22	Y22	Z22	X23	Y23	Z23	X24	Y24	Z24	X25	Y25	Z25	X26	Y26	Z26	X27	Y27	Z27	X28	Y28	Z28	X29	Y29	Z29	X30	Y30	Z30	X31	Y31	Z31	X32	Y32	Z32	X33	Y33	Z33	X34	Y34	Z34	X35	Y35	Z35	X36	Y36	Z36

623	2.48800	1834.48291	997.56683	333.07260	0.00000	0.00000	0.00000	0.00000	0.00000	0.00000	0.00000	0.00000	0.00000	0.00000	0.00000	0.00000	0.00000	0.00000	0.00000	0.00000	0.00000	0.00000	0.00000	0.00000	0.00000	0.00000	0.00000	0.00000	0.00000	0.00000	0.00000	0.00000	0.00000	0.00000	2048.61743	444.91028	453.78006	0.00000	0.00000	0.00000	0.00000	0.00000	0.00000	0.00000	0.00000	0.00000	0.00000	0.00000	0.00000	1939.49524	396.08142	447.74493	0.00000	0.00000	0.00000	1826.23315	986.18903	254.79773	0.00000	0.00000	0.00000	0.00000	0.00000	0.00000	1625.24316	650.88391	137.26151	1599.12134	716.37091	131.44397	0.00000	0.00000	0.00000	0.00000	0.00000	0.00000	0.00000	0.00000	0.00000	0.00000	0.00000	0.00000	0.00000	0.00000	0.00000	1477.43945	389.41971	207.65776	0.00000	0.00000	0.00000	0.00000	0.00000	0.00000	0.00000	0.00000	0.00000	1443.44592	30.19104	301.64099	0.00000	0.00000	0.00000	1241.42688	118.26289	296.19540	1278.12781	87.21626	232.07817
624	2.49200	1827.43140	997.24683	332.80563	0.00000	0.00000	0.00000	0.00000	0.00000	0.00000	0.00000	0.00000	0.00000	0.00000	0.00000	0.00000	0.00000	0.00000	0.00000	0.00000	0.00000	0.00000	0.00000	0.00000	0.00000	0.00000	0.00000	0.00000	2091.06274	469.24475	451.40384	0.00000	0.00000	0.00000	2042.42871	444.75360	454.11124	0.00000	0.00000	0.00000	0.00000	0.00000	0.00000	0.00000	0.00000	0.00000	0.00000	0.00000	0.00000	1933.46887	396.17184	447.99210	0.00000	0.00000	0.00000	1819.34302	985.83435	254.57225	0.00000	0.00000	0.00000	0.00000	0.00000	0.00000	1618.20972	650.62720	137.37691	1591.97571	716.23254	131.85565	0.00000	0.00000	0.00000	0.00000	0.00000	0.00000	0.00000	0.00000	0.00000	0.00000	0.00000	0.00000	0.00000	0.00000	0.00000	1473.60266	387.67416	207.99278	0.00000	0.00000	0.00000	0.00000	0.00000	0.00000	0.00000	0.00000	0.00000	1441.81470	31.39568	302.01270	0.00000	0.00000	0.00000	1238.68127	114.68488	296.23834	1275.55994	83.37770	232.32069
625	2.49600	1820.35181	996.90869	332.60757	0.00000	0.00000	0.00000	0.00000	0.00000	0.00000	0.00000	0.00000	0.00000	0.00000	0.00000	0.00000	0.00000	0.00000	0.00000	0.00000	0.00000	0.00000	0.00000	0.00000	0.00000	0.00000	0.00000	0.00000	2084.23511	469.08179	451.66306	0.00000	0.00000	0.00000	2036.19189	444.60495	454.44287	0.00000	0.00000	0.00000	0.00000	0.00000	0.00000	0.00000	0.00000	0.00000	0.00000	0.00000	0.00000	1927.48499	396.49948	448.26855	0.00000	0.00000	0.00000	1812.46228	985.56165	254.30875	0.00000	0.00000	0.00000	0.00000	0.00000	0.00000	1611.31750	650.31366	137.40379	1584.98047	715.97473	132.27615	1566.75769	679.80646	136.12148	0.00000	0.00000	0.00000	0.00000	0.00000	0.00000	0.00000	0.00000	0.00000	1510.24988	330.22574	205.33488	1469.84070	386.09476	208.35484	0.00000	0.00000	0.00000	0.00000	0.00000	0.00000	0.00000	0.00000	0.00000	1439.81470	32.80211	302.20422	0.00000	0.00000	0.00000	1234.90540	110.28573	296.38370	1272.35657	79.02696	232.72726
626	2.50000	1813.30701	996.60822	332.42892	0.00000	0.00000	0.00000	0.00000	0.00000	0.00000	0.00000	0.00000	0.00000	0.00000	0.00000	0.00000	0.00000	0.00000	0.00000	0.00000	0.00000	0.00000	0.00000	0.00000	0.00000	0.00000	0.00000	0.00000	2077.18970	468.84174	451.91510	0.00000	0.00000	0.00000	2029.61694	444.37338	454.78485	0.00000	0.00000	0.00000	0.00000	0.00000	0.00000	0.00000	0.00000	0.00000	0.00000	0.00000	0.00000	1921.03711	396.59116	448.60870	0.00000	0.00000	0.00000	1805.68225	985.34058	253.98857	0.00000	0.00000	0.00000	0.00000	0.00000	0.00000	1607.81604	651.81873	135.12186	1578.03894	715.60522	132.65228	1561.90833	679.46881	136.34349	1484.23560	471.40088	218.57959	0.00000	0.00000	0.00000	0.00000	0.00000	0.00000	1506.50293	329.10492	206.17583	1466.17676	385.06570	208.71620	0.00000	0.00000	0.00000	0.00000	0.00000	0.00000	0.00000	0.00000	0.00000	1437.82874	34.34344	302.26306	0.00000	0.00000	0.00000	1230.48926	105.22061	296.64587	1269.52368	74.86963	233.04936
